<?xml version="1.0" standalone="no"?><!DOCTYPE svg PUBLIC "-//W3C//DTD SVG 1.1//EN" "http://www.w3.org/Graphics/SVG/1.1/DTD/svg11.dtd"><svg t="1654392291386" class="icon" viewBox="0 0 1024 1024" version="1.1" xmlns="http://www.w3.org/2000/svg" p-id="2276" xmlns:xlink="http://www.w3.org/1999/xlink" width="48" height="48"><defs><style type="text/css">@font-face { font-family: feedback-iconfont; src: url("//at.alicdn.com/t/font_1031158_u69w8yhxdu.woff2?t=1630033759944") format("woff2"), url("//at.alicdn.com/t/font_1031158_u69w8yhxdu.woff?t=1630033759944") format("woff"), url("//at.alicdn.com/t/font_1031158_u69w8yhxdu.ttf?t=1630033759944") format("truetype"); }
</style></defs><path d="M858.2 265.6h-131c-0.7 0-1.5-0.1-2.2-0.1H430V228c0-40.3 32.8-73 73-73h15.5c29.2 0 55.6 17.5 67.2 44.5 3.7 8.6 5.7 17.7 5.8 27.1 0.3 15.5 12.9 27.8 28.3 27.8h0.6c15.7-0.3 28.1-13.3 27.8-28.9-0.3-16.7-3.8-33-10.4-48.3-20.6-47.9-67.4-78.8-119.3-78.8H503c-71.5 0-129.7 58.2-129.7 129.7v37.5h-76.7c-0.8 0-1.5 0.1-2.2 0.1h-131c-15.7 0-28.4 12.7-28.4 28.4s12.7 28.4 28.4 28.4H240v547.4c0 31.3 25.4 56.7 56.7 56.7H725c31.3 0 56.7-25.4 56.7-56.7V322.3h76.6c15.7 0 28.4-12.7 28.4-28.4-0.1-15.6-12.8-28.3-28.5-28.3z m-133.3 604H296.7V322.3H725v547.3z" fill="#4D4D4D" p-id="2277"></path><path d="M437.5 787.4c15.7 0 28.4-12.7 28.4-28.4V461.2c0-15.7-12.7-28.4-28.4-28.4s-28.4 12.7-28.4 28.4V759c0 15.7 12.7 28.4 28.4 28.4zM593.5 710.8c15.7 0 28.4-12.7 28.4-28.4V461.2c0-15.7-12.7-28.4-28.4-28.4s-28.4 12.7-28.4 28.4v221.2c0 15.7 12.7 28.4 28.4 28.4z" fill="#4D4D4D" p-id="2278"></path><path d="M593.5 756.2m-28.4 0a28.4 28.4 0 1 0 56.8 0 28.4 28.4 0 1 0-56.8 0Z" fill="#4D4D4D" p-id="2279"></path></svg>