<?xml version="1.0" standalone="no"?><!DOCTYPE svg PUBLIC "-//W3C//DTD SVG 1.1//EN" "http://www.w3.org/Graphics/SVG/1.1/DTD/svg11.dtd"><svg t="1654306577696" class="icon" viewBox="0 0 1024 1024" version="1.1" xmlns="http://www.w3.org/2000/svg" p-id="2163" xmlns:xlink="http://www.w3.org/1999/xlink" width="32" height="32"><defs><style type="text/css">@font-face { font-family: feedback-iconfont; src: url("//at.alicdn.com/t/font_1031158_u69w8yhxdu.woff2?t=1630033759944") format("woff2"), url("//at.alicdn.com/t/font_1031158_u69w8yhxdu.woff?t=1630033759944") format("woff"), url("//at.alicdn.com/t/font_1031158_u69w8yhxdu.ttf?t=1630033759944") format("truetype"); }
</style></defs><path d="M792.2 545.2c0-17.1-13.9-31-31-31-16.4 0-29.8 12.7-31 28.8l-0.4-0.1c-17.2 119.4-127.7 202.6-247.3 185.8C362.7 711.9 279.2 601.1 296 481.3 312.9 361.5 423.7 278 543.5 294.9c33.6 4.7 64.4 16.9 90.9 34.5l-38.6 60.4c-1.9 2.9 0.7 6.6 4.1 5.9l145-31.7c2.1-0.5 3.4-2.5 3-4.6L716 213.8c-0.7-3.4-5.2-4.2-7-1.3l-41 64.2c-33.8-22.3-73-37.7-115.8-43.7-154-21.6-296.3 85.6-317.9 239.6-21.6 154 85.6 296.3 239.6 317.9 153.7 21.6 295.9-85.3 317.8-238.9h-0.1c0.4-2 0.6-4.2 0.6-6.4z" fill="" p-id="2164"></path></svg>